# xmcd CD database file
#
# Track frame offsets:
#	180
#	18689
#	29050
#	44577
#	53789
#	68295
#	82338
#	98242
#	112017
#	131503
#	147705
#	161194
#	176055
#	186846
#
# Disc length: 2522 seconds
#
# Revision: 2
# Processed by: cddbd v1.4PL0 Copyright (c) Steve Scherf et al.
# Submitted via: CDex 1.40Release
#
DISCID=d609d80e
DTITLE=Mighty Blue Kings - Meet Me In Uptown
DYEAR=1996
DGENRE=Swing
TTITLE0=Jumpin' At The Green Mill
TTITLE1=Baby Drives Me Wild
TTITLE2=Grinnin' Like A Chessy Cat
TTITLE3=Loose Lips
TTITLE4=Cadillac Boogie
TTITLE5=Buzz Buzz Buzz
TTITLE6=Big Mamou
TTITLE7=Honey Chile Jump
TTITLE8=Spark Of My Life
TTITLE9=In The Night
TTITLE10=Meet Me In Uptown
TTITLE11=Rag Mop
TTITLE12=Pink Cadillac
TTITLE13=Tenor Madness
EXTD=YEAR: 1996 ID3G: 83
EXTT0=
EXTT1=
EXTT2=
EXTT3=
EXTT4=
EXTT5=
EXTT6=
EXTT7=
EXTT8=
EXTT9=
EXTT10=
EXTT11=
EXTT12=
EXTT13=
PLAYORDER=
